<?xml version="1.0" encoding="UTF-8" standalone="no"?>
<!DOCTYPE svg PUBLIC "-//W3C//DTD SVG 1.1//EN" "http://www.w3.org/Graphics/SVG/1.1/DTD/svg11.dtd">
<!-- Generated by graphviz version 2.40.1 (20161225.0304)
 -->
<!-- Title: TicketBooking2 Pages: 1 -->
<svg width="436pt" height="274pt" viewBox="0.00 0.00 436.00 274.00" xmlns="http://www.w3.org/2000/svg" xmlns:xlink="http://www.w3.org/1999/xlink">
<g id="graph0" class="graph" transform="scale(1 1) rotate(0) translate(4 270)">
<title>TicketBooking2</title>
<polygon fill="#ffffff" stroke="transparent" points="-4,4 -4,-270 432,-270 432,4 -4,4"/>
<g id="clust4" class="cluster">
<title>cluster_reservation</title>
<polygon fill="none" stroke="#000000" points="74.7572,-87.6835 74.7572,-203.6835 240.7572,-203.6835 240.7572,-87.6835 74.7572,-87.6835"/>
<text text-anchor="middle" x="157.7572" y="-187.0835" font-family="Times,serif" font-size="14.00" fill="#000000">Reservation(Context)</text>
</g>
<g id="clust5" class="cluster">
<title>cluster_aggregate_reservation</title>
<polygon fill="none" stroke="#000000" points="82.9953,-95.3244 82.9953,-171.3244 232.9953,-171.3244 232.9953,-95.3244 82.9953,-95.3244"/>
<text text-anchor="middle" x="157.9953" y="-154.7244" font-family="Times,serif" font-size="14.00" fill="#000000">Reservation(Aggregate)</text>
</g>
<g id="clust1" class="cluster">
<title>cluster_cinema</title>
<polygon fill="none" stroke="#000000" points="251.9124,-.4445 251.9124,-182.4445 427.9124,-182.4445 427.9124,-.4445 251.9124,-.4445"/>
<text text-anchor="middle" x="339.9124" y="-165.8445" font-family="Times,serif" font-size="14.00" fill="#000000">Cinema(Context)</text>
</g>
<g id="clust2" class="cluster">
<title>cluster_aggregate_cinema</title>
<polygon fill="none" stroke="#000000" points="260.1505,-8.0853 260.1505,-150.0853 420.1505,-150.0853 420.1505,-8.0853 260.1505,-8.0853"/>
<text text-anchor="middle" x="340.1505" y="-133.4853" font-family="Times,serif" font-size="14.00" fill="#000000">Cinema(Aggregate)</text>
</g>
<g id="clust3" class="cluster">
<title>cluster_movie</title>
<polygon fill="none" stroke="#000000" points="75.4384,-33.017 75.4384,-73.017 181.4384,-73.017 181.4384,-33.017 75.4384,-33.017"/>
<text text-anchor="middle" x="128.4384" y="-56.417" font-family="Times,serif" font-size="14.00" fill="#000000">Movie(Context)</text>
</g>
<g id="clust6" class="cluster">
<title>cluster_user</title>
<polygon fill="none" stroke="#000000" points="-.1181,-226.0959 -.1181,-266.0959 95.8819,-266.0959 95.8819,-226.0959 -.1181,-226.0959"/>
<text text-anchor="middle" x="47.8819" y="-249.4959" font-family="Times,serif" font-size="14.00" fill="#000000">User(Context)</text>
</g>
<!-- entity_Cinema -->
<g id="node5" class="node">
<title>entity_Cinema</title>
<polygon fill="#d3d3d3" stroke="#000000" points="411.9373,-99.7262 352.8399,-99.7262 352.8399,-63.7262 411.9373,-63.7262 411.9373,-99.7262"/>
<text text-anchor="middle" x="382.3886" y="-77.5262" font-family="Times,serif" font-size="14.00" fill="#000000">Cinema</text>
</g>
<!-- entity_ScreeningRoom -->
<g id="node6" class="node">
<title>entity_ScreeningRoom</title>
<polygon fill="#d3d3d3" stroke="#000000" points="374.5936,-51.7262 268.1836,-51.7262 268.1836,-15.7262 374.5936,-15.7262 374.5936,-51.7262"/>
<text text-anchor="middle" x="321.3886" y="-29.5262" font-family="Times,serif" font-size="14.00" fill="#000000">ScreeningRoom</text>
</g>
<!-- entity_Seat -->
<g id="node7" class="node">
<title>entity_Seat</title>
<polygon fill="#d3d3d3" stroke="#000000" points="340.3886,-117.7262 286.3886,-117.7262 286.3886,-81.7262 340.3886,-81.7262 340.3886,-117.7262"/>
<text text-anchor="middle" x="313.3886" y="-95.5262" font-family="Times,serif" font-size="14.00" fill="#000000">Seat</text>
</g>
<!-- __0:cluster_reservation -->
<!-- __1:cluster_cinema -->
<!-- __0:cluster_reservation&#45;&gt;__1:cluster_cinema -->
<g id="edge4" class="edge">
<title>__0:cluster_reservation-&gt;__1:cluster_cinema</title>
<path fill="none" stroke="#000000" d="M240.8391,-120.9448C241.2965,-120.8086 241.7542,-120.6723 242.2121,-120.536"/>
<polygon fill="#000000" stroke="#000000" points="243.2602,-123.8758 251.8455,-117.6675 241.2625,-117.1669 243.2602,-123.8758"/>
</g>
<!-- __2:cluster_reservation -->
<!-- __3:cluster_movie -->
<!-- __2:cluster_reservation&#45;&gt;__3:cluster_movie -->
<g id="edge5" class="edge">
<title>__2:cluster_reservation-&gt;__3:cluster_movie</title>
<path fill="none" stroke="#000000" d="M139.3556,-87.5226C138.8523,-85.9317 138.3552,-84.3607 137.8671,-82.8179"/>
<polygon fill="#000000" stroke="#000000" points="141.1559,-81.6098 134.8024,-73.1314 134.482,-83.7214 141.1559,-81.6098"/>
</g>
<!-- __4:cluster_reservation -->
<!-- __5:cluster_user -->
<!-- __4:cluster_reservation&#45;&gt;__5:cluster_user -->
<g id="edge6" class="edge">
<title>__4:cluster_reservation-&gt;__5:cluster_user</title>
<path fill="none" stroke="#000000" d="M94.1605,-203.8031C88.2935,-209.1647 82.5617,-214.4029 77.2418,-219.2646"/>
<polygon fill="#000000" stroke="#000000" points="74.7952,-216.7591 69.7745,-226.0888 79.5175,-221.9263 74.7952,-216.7591"/>
</g>
</g>
</svg>