<?xml version="1.0" encoding="UTF-8" standalone="no"?>
<!DOCTYPE svg PUBLIC "-//W3C//DTD SVG 1.1//EN"
 "http://www.w3.org/Graphics/SVG/1.1/DTD/svg11.dtd">
<!-- Generated by graphviz version 7.0.0 (20221023.0053)
 -->
<!-- Title: TicketBooking2 Pages: 1 -->
<svg width="447pt" height="289pt"
 viewBox="0.00 0.00 447.00 289.00" xmlns="http://www.w3.org/2000/svg" xmlns:xlink="http://www.w3.org/1999/xlink">
<g id="graph0" class="graph" transform="scale(1 1) rotate(0) translate(4 285)">
<title>TicketBooking2</title>
<polygon fill="white" stroke="none" points="-4,4 -4,-285 443,-285 443,4 -4,4"/>
<g id="clust4" class="cluster">
<title>cluster_reservation</title>
<polygon fill="none" stroke="black" points="96.7,-79.46 96.7,-193.46 258.7,-193.46 258.7,-79.46 96.7,-79.46"/>
<text text-anchor="middle" x="177.7" y="-178.26" font-family="Times,serif" font-size="14.00">Reservation(Context)</text>
</g>
<g id="clust5" class="cluster">
<title>cluster_aggregate_reservation</title>
<polygon fill="none" stroke="black" points="104.94,-87.61 104.94,-162.61 250.94,-162.61 250.94,-87.61 104.94,-87.61"/>
<text text-anchor="middle" x="177.94" y="-147.41" font-family="Times,serif" font-size="14.00">Reservation(Aggregate)</text>
</g>
<g id="clust1" class="cluster">
<title>cluster_cinema</title>
<polygon fill="none" stroke="black" points="269.63,0.07 269.63,-179.93 438.63,-179.93 438.63,0.07 269.63,0.07"/>
<text text-anchor="middle" x="354.13" y="-164.73" font-family="Times,serif" font-size="14.00">Cinema(Context)</text>
</g>
<g id="clust2" class="cluster">
<title>cluster_aggregate_cinema</title>
<polygon fill="none" stroke="black" points="277.37,-8.07 277.37,-149.07 430.37,-149.07 430.37,-8.07 277.37,-8.07"/>
<text text-anchor="middle" x="353.87" y="-133.87" font-family="Times,serif" font-size="14.00">Cinema(Aggregate)</text>
</g>
<g id="clust3" class="cluster">
<title>cluster_movie</title>
<polygon fill="none" stroke="black" points="90.3,-30.73 90.3,-69.73 194.3,-69.73 194.3,-30.73 90.3,-30.73"/>
<text text-anchor="middle" x="142.3" y="-54.53" font-family="Times,serif" font-size="14.00">Movie(Context)</text>
</g>
<g id="clust6" class="cluster">
<title>cluster_user</title>
<polygon fill="none" stroke="black" points="0.03,-241.5 0.03,-280.5 94.03,-280.5 94.03,-241.5 0.03,-241.5"/>
<text text-anchor="middle" x="47.03" y="-265.3" font-family="Times,serif" font-size="14.00">User(Context)</text>
</g>
<!-- entity_Cinema -->
<g id="node5" class="node">
<title>entity_Cinema</title>
<polygon fill="lightgrey" stroke="black" points="422.1,-99.71 363.1,-99.71 363.1,-63.71 422.1,-63.71 422.1,-99.71"/>
<text text-anchor="middle" x="392.6" y="-78.01" font-family="Times,serif" font-size="14.00">Cinema</text>
</g>
<!-- entity_ScreeningRoom -->
<g id="node6" class="node">
<title>entity_ScreeningRoom</title>
<polygon fill="lightgrey" stroke="black" points="389.6,-51.71 285.6,-51.71 285.6,-15.71 389.6,-15.71 389.6,-51.71"/>
<text text-anchor="middle" x="337.6" y="-30.01" font-family="Times,serif" font-size="14.00">ScreeningRoom</text>
</g>
<!-- entity_Seat -->
<g id="node7" class="node">
<title>entity_Seat</title>
<polygon fill="lightgrey" stroke="black" points="351.6,-117.71 297.6,-117.71 297.6,-81.71 351.6,-81.71 351.6,-117.71"/>
<text text-anchor="middle" x="324.6" y="-96.01" font-family="Times,serif" font-size="14.00">Seat</text>
</g>
<!-- __0:cluster_reservation -->
<!-- __1:cluster_cinema -->
<!-- __0:cluster_reservation&#45;&gt;__1:cluster_cinema -->
<g id="edge4" class="edge">
<title>__0:cluster_reservation&#45;&gt;__1:cluster_cinema</title>
<path fill="none" stroke="black" d="M204.88,-129.3C234.67,-121.44 282.67,-108.78 316.16,-99.95"/>
<polygon fill="black" stroke="black" points="316.68,-103.43 325.45,-97.49 314.89,-96.66 316.68,-103.43"/>
</g>
<!-- __2:cluster_reservation -->
<!-- __3:cluster_movie -->
<!-- __2:cluster_reservation&#45;&gt;__3:cluster_movie -->
<g id="edge5" class="edge">
<title>__2:cluster_reservation&#45;&gt;__3:cluster_movie</title>
<path fill="none" stroke="black" d="M170.19,-118.18C165.5,-106.74 159.36,-91.78 154.03,-78.8"/>
<polygon fill="black" stroke="black" points="157.41,-77.82 150.37,-69.89 150.93,-80.47 157.41,-77.82"/>
</g>
<!-- __4:cluster_reservation -->
<!-- __5:cluster_user -->
<!-- __4:cluster_reservation&#45;&gt;__5:cluster_user -->
<g id="edge6" class="edge">
<title>__4:cluster_reservation&#45;&gt;__5:cluster_user</title>
<path fill="none" stroke="black" d="M158.42,-154.84C136.23,-176 99.6,-210.9 74.45,-234.88"/>
<polygon fill="black" stroke="black" points="72.31,-232.08 67.49,-241.51 77.14,-237.14 72.31,-232.08"/>
</g>
</g>
</svg>
