<?xml version="1.0" encoding="UTF-8"?>
<svg width="687px" height="163px" viewBox="0 0 687 163" version="1.1" xmlns="http://www.w3.org/2000/svg" xmlns:xlink="http://www.w3.org/1999/xlink">
    <!-- Generator: Sketch 62 (91390) - https://sketch.com -->
    <title>Group 4</title>
    <desc>Created with Sketch.</desc>
    <g id="Page-1" stroke="none" stroke-width="1" fill="none" fill-rule="evenodd">
        <g id="Group-4">
            <g id="Group-3">
                <rect id="Rectangle" fill="#2E317C" x="0" y="43" width="157" height="33"></rect>
                <rect id="Rectangle" fill="#1BA784" x="0" y="0" width="157" height="33"></rect>
                <rect id="Rectangle" fill="#EE3F4D" x="0" y="87" width="157" height="33"></rect>
                <rect id="Rectangle" fill="#525288" x="0" y="130" width="157" height="33"></rect>
            </g>
            <g id="Group-2" transform="translate(282.000000, 6.000000)">
                <g id="Group">
                    <rect id="Rectangle" fill-opacity="0.954144244" fill="#1A3B34" x="0" y="0" width="157" height="157" rx="32"></rect>
                    <path d="M44.902,133.192422 C49.5596667,133.192422 53.7855833,132.407422 57.57975,130.837422 C61.3739167,129.267422 64.841,127.161005 67.981,124.518172 C71.121,121.875339 73.98625,118.826922 76.57675,115.372922 C79.16725,111.918922 81.60075,108.321005 83.87725,104.579172 C86.15375,100.837339 88.2994167,97.0693385 90.31425,93.2751719 C92.3290833,89.4810052 94.357,85.9354219 96.398,82.6384219 L96.398,82.6384219 L116.651,82.6384219 L117.5145,81.2254219 L97.2615,81.2254219 C97.8371667,80.2834219 98.5829167,78.9881719 99.49875,77.3396719 C100.414583,75.6911719 101.448167,73.8987552 102.5995,71.9624219 C103.750833,70.0260885 105.019917,68.0635885 106.40675,66.0749219 C107.793583,64.0862552 109.1935,62.2807552 110.6065,60.6584219 C112.0195,59.0360885 113.458667,57.7146719 114.924,56.6941719 C116.389333,55.6736719 117.776167,55.1634219 119.0845,55.1634219 C120.131167,55.1634219 120.9685,55.5559219 121.5965,56.3409219 C122.2245,57.1259219 122.5385,58.2772552 122.5385,59.7949219 C122.5385,60.9985885 122.3815,62.1237552 122.0675,63.1704219 C121.7535,64.2170885 121.361,65.2114219 120.89,66.1534219 C121.413333,66.2580885 121.884333,66.3104219 122.303,66.3104219 C124.134667,66.3104219 125.730833,65.8394219 127.0915,64.8974219 C128.452167,63.9554219 129.1325,62.5424219 129.1325,60.6584219 C129.1325,59.5594219 128.883917,58.6043385 128.38675,57.7931719 C127.889583,56.9820052 127.235417,56.3147552 126.42425,55.7914219 C125.613083,55.2680885 124.69725,54.8755885 123.67675,54.6139219 C122.65625,54.3522552 121.5965,54.2214219 120.4975,54.2214219 C116.991167,54.2214219 113.694167,55.1372552 110.6065,56.9689219 C107.518833,58.8005885 104.67975,61.0770885 102.08925,63.7984219 C99.49875,66.5197552 97.1699167,69.4504219 95.10275,72.5904219 C93.0355833,75.7304219 91.2431667,78.6087552 89.7255,81.2254219 L89.7255,81.2254219 L82.0325,81.2254219 L81.2475,82.6384219 L88.7835,82.6384219 C87.0565,85.3074219 85.2248333,88.3950885 83.2885,91.9014219 C81.3521667,95.4077552 79.32425,99.0056719 77.20475,102.695172 C75.08525,106.384672 72.8610833,109.995672 70.53225,113.528172 C68.2034167,117.060672 65.74375,120.213755 63.15325,122.987422 C60.56275,125.761089 57.8545,127.998339 55.0285,129.699172 C52.2025,131.400005 49.2456667,132.250422 46.158,132.250422 C42.7563333,132.250422 40.2966667,131.452339 38.779,129.856172 C37.2613333,128.260005 36.5025,126.101255 36.5025,123.379922 C36.5025,120.867922 37.2744167,118.800755 38.81825,117.178422 C40.3620833,115.556089 42.39,114.666422 44.902,114.509422 L44.902,114.509422 L44.902,113.881422 C44.431,113.776755 43.8945833,113.698255 43.29275,113.645922 C42.6909167,113.593589 42.0236667,113.567422 41.291,113.567422 C39.878,113.567422 38.4911667,113.776755 37.1305,114.195422 C35.7698333,114.614089 34.5530833,115.215922 33.48025,116.000922 C32.4074167,116.785922 31.5439167,117.754089 30.88975,118.905422 C30.2355833,120.056755 29.9085,121.391255 29.9085,122.908922 C29.9085,124.897589 30.3925833,126.546089 31.36075,127.854422 C32.3289167,129.162755 33.5456667,130.209422 35.011,130.994422 C36.4763333,131.779422 38.0986667,132.342005 39.878,132.682172 C41.6573333,133.022339 43.332,133.192422 44.902,133.192422 Z M106.532473,113.217468 L106.532473,111.598022 C105.26758,110.192586 104.635134,107.503092 104.635134,103.529541 C104.635134,100.188436 105.26758,97.6330973 106.532473,95.8635254 L106.532473,95.8635254 L106.532473,94.5411377 C105.222862,95.1991374 104.120872,96.4145203 103.226503,98.1872864 C102.332135,99.9600525 101.884951,101.734416 101.884951,103.510376 C101.884951,105.586589 102.282625,107.467957 103.077974,109.15448 C103.873323,110.841003 105.024823,112.195333 106.532473,113.217468 L106.532473,113.217468 Z M111.218325,108.857422 L111.218325,105.42688 L112.368227,104.2099 L115.386721,108.857422 L118.232729,108.857422 L114.05475,102.485046 L117.523623,98.5945435 L114.639284,98.5945435 L111.218325,102.532959 L111.218325,94.196167 L108.822695,94.7711182 L108.822695,108.857422 L111.218325,108.857422 Z M119.842592,113.217468 C121.350242,112.195333 122.501741,110.841003 123.297091,109.15448 C124.09244,107.467957 124.490114,105.586589 124.490114,103.510376 C124.490114,101.734416 124.04293,99.9600525 123.148562,98.1872864 C122.254193,96.4145203 121.152203,95.1991374 119.842592,94.5411377 L119.842592,94.5411377 L119.842592,95.8635254 C121.107485,97.6330973 121.739931,100.188436 121.739931,103.529541 C121.739931,107.503092 121.107485,110.192586 119.842592,111.598022 L119.842592,111.598022 L119.842592,113.217468 Z" id="f(k)" fill="#FFFFFF" fill-rule="nonzero"></path>
                </g>
            </g>
            <g id="{-}" transform="translate(563.688000, 18.144000)" fill-rule="nonzero">
                <path d="M37.248,119.552 L37.248,111.488 L30.08,111.488 C24.448,111.488 21.632,108.288 21.632,102.144 L21.632,75.392 C21.632,67.84 18.048,62.592 11.136,59.776 C18.048,57.088 21.632,51.84 21.632,44.16 L21.632,17.536 C21.632,11.136 24.448,8.064 30.08,8.064 L37.248,8.064 L37.248,0 L28.416,0 C23.168,0 19.072,1.664 16.256,4.992 C13.44,8.064 12.16,12.416 12.16,17.792 L12.16,43.776 C12.16,47.616 11.264,50.432 9.728,52.224 C7.936,54.272 4.608,55.296 0,55.552 L0,64 C4.608,64.128 7.936,65.28 9.728,67.328 C11.264,69.12 12.16,71.936 12.16,75.776 L12.16,101.888 C12.16,107.264 13.44,111.488 16.256,114.56 C19.072,117.888 23.168,119.552 28.416,119.552 L37.248,119.552 Z" id="{" fill="#000000"></path>
                <path d="M94.08,119.552 C99.2,119.552 103.296,117.888 106.24,114.56 C108.928,111.488 110.336,107.264 110.336,101.888 L110.336,75.776 C110.336,71.936 111.104,69.12 112.768,67.328 C114.56,65.28 117.76,64.128 122.496,64 L122.496,55.552 C117.76,55.296 114.56,54.272 112.768,52.352 C111.104,50.432 110.336,47.616 110.336,43.776 L110.336,17.792 C110.336,12.416 108.928,8.064 106.24,4.992 C103.296,1.664 99.2,0 94.08,0 L85.248,0 L85.248,8.064 L92.416,8.064 C98.048,8.064 100.864,11.136 100.864,17.536 L100.864,44.16 C100.864,51.84 104.32,57.088 111.36,59.776 C104.32,62.592 100.864,67.84 100.864,75.392 L100.864,102.144 C100.864,108.288 98.048,111.488 92.416,111.488 L85.248,111.488 L85.248,119.552 L94.08,119.552 Z" id="}" fill="#FFC000"></path>
            </g>
            <path id="Line" d="M243.487371,71.0263264 L245.230522,72.0068489 L265.230522,83.2568489 L268.329458,85 L265.230522,86.7431511 L245.230522,97.9931511 L243.487371,98.9736736 L241.526326,95.4873714 L243.269478,94.5068489 L256.611,87 L186.387,87 L199.730522,94.5068489 L201.473674,95.4873714 L199.512629,98.9736736 L197.769478,97.9931511 L177.769478,86.7431511 L174.670542,85 L177.769478,83.2568489 L197.769478,72.0068489 L199.512629,71.0263264 L201.473674,74.5126286 L199.730522,75.4931511 L186.384,83 L256.614,83 L243.269478,75.4931511 L241.526326,74.5126286 L243.487371,71.0263264 Z" fill="#BBBBBB" fill-rule="nonzero"></path>
            <path id="Line" d="M522.487371,64.0263264 L524.230522,65.0068489 L544.230522,76.2568489 L547.329458,78 L544.230522,79.7431511 L524.230522,90.9931511 L522.487371,91.9736736 L520.526326,88.4873714 L522.269478,87.5068489 L535.613,80 L465.387,80 L478.730522,87.5068489 L480.473674,88.4873714 L478.512629,91.9736736 L476.769478,90.9931511 L456.769478,79.7431511 L453.670542,78 L456.769478,76.2568489 L476.769478,65.0068489 L478.512629,64.0263264 L480.473674,67.5126286 L478.730522,68.4931511 L465.384,76 L535.614,76 L522.269478,68.4931511 L520.526326,67.5126286 L522.487371,64.0263264 Z" fill="#BBBBBB" fill-rule="nonzero"></path>
        </g>
    </g>
</svg>