<?xml version="1.0" encoding="UTF-8"?>
<svg width="256px" height="256px" viewBox="0 0 256 256" version="1.1" xmlns="http://www.w3.org/2000/svg" xmlns:xlink="http://www.w3.org/1999/xlink">
    <!-- Generator: Sketch 62 (91390) - https://sketch.com -->
    <title>logo</title>
    <desc>Created with Sketch.</desc>
    <g id="Page-1" stroke="none" stroke-width="1" fill="none" fill-rule="evenodd">
        <g id="logo" fill-rule="nonzero">
            <rect id="Rectangle" fill-opacity="0.954144244" fill="#1A3B34" x="0" y="0" width="256" height="256" rx="32"></rect>
            <path d="M73.216,217.18 C80.8106665,217.18 87.7013335,215.9 93.888,213.34 C100.074667,210.78 105.728,207.345334 110.848,203.036 C115.968,198.726667 120.64,193.756 124.864,188.124 C129.088,182.492 133.056,176.625334 136.768,170.524 C140.48,164.422666 143.978667,158.278667 147.264,152.092 C150.549333,145.905334 153.856,140.124 157.184,134.748 L157.184,134.748 L190.208,134.748 L191.616,132.444 L158.592,132.444 C159.530666,130.908 160.746667,128.796 162.24,126.108 C163.733333,123.42 165.418667,120.497333 167.296,117.34 C169.173334,114.182666 171.242667,110.982666 173.504,107.74 C175.765333,104.497333 178.048,101.553333 180.352,98.908 C182.656,96.2626665 185.002667,94.108 187.392,92.444 C189.781334,90.78 192.042666,89.948 194.176,89.948 C195.882667,89.948 197.248,90.588 198.272,91.868 C199.296,93.148 199.808,95.0253335 199.808,97.5 C199.808,99.4626665 199.552,101.297333 199.04,103.004 C198.528,104.710666 197.888,106.332 197.12,107.868 C197.973334,108.038667 198.741333,108.124 199.424,108.124 C202.410666,108.124 205.013333,107.356 207.232,105.82 C209.450667,104.284 210.56,101.98 210.56,98.908 C210.56,97.116 210.154667,95.5586665 209.344,94.236 C208.533334,92.9133335 207.466667,91.8253335 206.144,90.972 C204.821334,90.1186665 203.328,89.4786665 201.664,89.052 C200,88.6253335 198.272,88.412 196.48,88.412 C190.762667,88.412 185.386666,89.9053335 180.352,92.892 C175.317333,95.8786665 170.688,99.5906665 166.464,104.028 C162.24,108.465333 158.442667,113.244 155.072,118.364 C151.701334,123.484 148.778667,128.177334 146.304,132.444 L146.304,132.444 L133.76,132.444 L132.48,134.748 L144.768,134.748 C141.952,139.1 138.965334,144.134667 135.808,149.852 C132.650666,155.569333 129.344,161.436 125.888,167.452 C122.432,173.468 118.805334,179.356 115.008,185.116 C111.210667,190.876 107.2,196.017334 102.976,200.54 C98.752,205.062667 94.336,208.710667 89.728,211.484 C85.12,214.257333 80.2986665,215.644 75.264,215.644 C69.7173335,215.644 65.7066665,214.342667 63.232,211.74 C60.7573335,209.137334 59.52,205.617334 59.52,201.18 C59.52,197.084 60.7786665,193.713334 63.296,191.068 C65.8133335,188.422666 69.12,186.972 73.216,186.716 L73.216,186.716 L73.216,185.692 C72.448,185.521334 71.5733335,185.393334 70.592,185.308 C69.6106665,185.222667 68.5226665,185.18 67.328,185.18 C65.024,185.18 62.7626665,185.521334 60.544,186.204 C58.3253335,186.886666 56.3413335,187.868 54.592,189.148 C52.8426665,190.428 51.4346665,192.006666 50.368,193.884 C49.3013333,195.761334 48.768,197.937334 48.768,200.412 C48.768,203.654666 49.5573333,206.342667 51.136,208.476 C52.7146665,210.609333 54.6986665,212.316 57.088,213.596 C59.4773335,214.876 62.1226665,215.793334 65.024,216.348 C67.9253335,216.902667 70.656,217.18 73.216,217.18 Z M173.709,184.609375 L173.709,181.96875 C171.6465,179.677084 170.61525,175.291667 170.61525,168.8125 C170.61525,163.364584 171.6465,159.197917 173.709,156.3125 L173.709,156.3125 L173.709,154.15625 C171.573584,155.229167 169.776709,157.210938 168.318375,160.101562 C166.860042,162.992188 166.130875,165.885417 166.130875,168.78125 C166.130875,172.166667 166.779313,175.234375 168.076188,177.984375 C169.373063,180.734375 171.250667,182.942709 173.709,184.609375 L173.709,184.609375 Z M181.349625,177.5 L181.349625,171.90625 L183.224625,169.921875 L188.1465,177.5 L192.787125,177.5 L185.974625,167.109375 L191.630875,160.765625 L186.92775,160.765625 L181.349625,167.1875 L181.349625,153.59375 L177.443375,154.53125 L177.443375,177.5 L181.349625,177.5 Z M195.412125,184.609375 C197.870459,182.942709 199.748063,180.734375 201.044938,177.984375 C202.341813,175.234375 202.99025,172.166667 202.99025,168.78125 C202.99025,165.885417 202.261084,162.992188 200.80275,160.101562 C199.344417,157.210938 197.547542,155.229167 195.412125,154.15625 L195.412125,154.15625 L195.412125,156.3125 C197.474625,159.197917 198.505875,163.364584 198.505875,168.8125 C198.505875,175.291667 197.474625,179.677084 195.412125,181.96875 L195.412125,181.96875 L195.412125,184.609375 Z" id="f(k)" fill="#FFFFFF"></path>
        </g>
    </g>
</svg>