<?xml version="1.0" encoding="UTF-8" standalone="no"?>
<!DOCTYPE svg PUBLIC "-//W3C//DTD SVG 1.1//EN"
 "http://www.w3.org/Graphics/SVG/1.1/DTD/svg11.dtd">
<!-- Generated by graphviz version 6.0.1 (20220911.1526)
 -->
<!-- Title: TicketBooking Pages: 1 -->
<svg width="488pt" height="391pt"
 viewBox="0.00 0.00 488.00 391.00" xmlns="http://www.w3.org/2000/svg" xmlns:xlink="http://www.w3.org/1999/xlink">
<g id="graph0" class="graph" transform="scale(1 1) rotate(0) translate(4 387)">
<title>TicketBooking</title>
<polygon fill="white" stroke="none" points="-4,4 -4,-387 484,-387 484,4 -4,4"/>
<g id="clust5" class="cluster">
<title>cluster_reservation</title>
<polygon fill="none" stroke="black" points="135.56,-190.15 135.56,-352.15 297.56,-352.15 297.56,-190.15 135.56,-190.15"/>
<text text-anchor="middle" x="216.56" y="-336.95" font-family="Times,serif" font-size="14.00">Reservation(Context)</text>
</g>
<g id="clust6" class="cluster">
<title>cluster_aggregate_reservation</title>
<polygon fill="none" stroke="black" points="143.8,-198.29 143.8,-321.29 289.8,-321.29 289.8,-198.29 143.8,-198.29"/>
<text text-anchor="middle" x="216.8" y="-306.09" font-family="Times,serif" font-size="14.00">Reservation(Aggregate)</text>
</g>
<g id="clust1" class="cluster">
<title>cluster_cinema</title>
<polygon fill="none" stroke="black" points="311.18,-56.7 311.18,-236.7 480.18,-236.7 480.18,-56.7 311.18,-56.7"/>
<text text-anchor="middle" x="395.68" y="-221.5" font-family="Times,serif" font-size="14.00">Cinema(Context)</text>
</g>
<g id="clust2" class="cluster">
<title>cluster_aggregate_cinema</title>
<polygon fill="none" stroke="black" points="318.92,-64.84 318.92,-205.84 471.92,-205.84 471.92,-64.84 318.92,-64.84"/>
<text text-anchor="middle" x="395.42" y="-190.64" font-family="Times,serif" font-size="14.00">Cinema(Aggregate)</text>
</g>
<g id="clust3" class="cluster">
<title>cluster_movie</title>
<polygon fill="none" stroke="black" points="63.32,-0.37 63.32,-180.37 215.32,-180.37 215.32,-0.37 63.32,-0.37"/>
<text text-anchor="middle" x="139.32" y="-165.17" font-family="Times,serif" font-size="14.00">Movie(Context)</text>
</g>
<g id="clust4" class="cluster">
<title>cluster_aggregate_movie</title>
<polygon fill="none" stroke="black" points="71.56,-8.51 71.56,-149.51 207.56,-149.51 207.56,-8.51 71.56,-8.51"/>
<text text-anchor="middle" x="139.56" y="-134.31" font-family="Times,serif" font-size="14.00">Movie(Aggregate)</text>
</g>
<g id="clust7" class="cluster">
<title>cluster_user</title>
<polygon fill="none" stroke="black" points="-0.2,-269.2 -0.2,-383.2 121.8,-383.2 121.8,-269.2 -0.2,-269.2"/>
<text text-anchor="middle" x="60.8" y="-368" font-family="Times,serif" font-size="14.00">User(Context)</text>
</g>
<g id="clust8" class="cluster">
<title>cluster_aggregate_user</title>
<polygon fill="none" stroke="black" points="8.04,-277.34 8.04,-352.34 114.04,-352.34 114.04,-277.34 8.04,-277.34"/>
<text text-anchor="middle" x="61.04" y="-337.14" font-family="Times,serif" font-size="14.00">User(Aggregate)</text>
</g>
<!-- entity_Cinema -->
<g id="node5" class="node">
<title>entity_Cinema</title>
<polygon fill="lightgrey" stroke="black" points="463.66,-156.48 404.66,-156.48 404.66,-120.48 463.66,-120.48 463.66,-156.48"/>
<text text-anchor="middle" x="434.16" y="-134.78" font-family="Times,serif" font-size="14.00">Cinema</text>
</g>
<!-- entity_ScreeningRoom -->
<g id="node6" class="node">
<title>entity_ScreeningRoom</title>
<polygon fill="lightgrey" stroke="black" points="431.16,-108.48 327.16,-108.48 327.16,-72.48 431.16,-72.48 431.16,-108.48"/>
<text text-anchor="middle" x="379.16" y="-86.78" font-family="Times,serif" font-size="14.00">ScreeningRoom</text>
</g>
<!-- entity_Seat -->
<g id="node7" class="node">
<title>entity_Seat</title>
<polygon fill="lightgrey" stroke="black" points="393.16,-174.48 339.16,-174.48 339.16,-138.48 393.16,-138.48 393.16,-174.48"/>
<text text-anchor="middle" x="366.16" y="-152.78" font-family="Times,serif" font-size="14.00">Seat</text>
</g>
<!-- entity_Movie -->
<g id="node8" class="node">
<title>entity_Movie</title>
<polygon fill="lightgrey" stroke="black" points="199.8,-100.15 145.8,-100.15 145.8,-64.15 199.8,-64.15 199.8,-100.15"/>
<text text-anchor="middle" x="172.8" y="-78.45" font-family="Times,serif" font-size="14.00">Movie</text>
</g>
<!-- entity_Actor -->
<g id="node9" class="node">
<title>entity_Actor</title>
<polygon fill="lightgrey" stroke="black" points="133.8,-118.15 79.8,-118.15 79.8,-82.15 133.8,-82.15 133.8,-118.15"/>
<text text-anchor="middle" x="106.8" y="-96.45" font-family="Times,serif" font-size="14.00">Actor</text>
</g>
<!-- entity_Publisher -->
<g id="node10" class="node">
<title>entity_Publisher</title>
<polygon fill="lightgrey" stroke="black" points="153.8,-52.15 85.8,-52.15 85.8,-16.15 153.8,-16.15 153.8,-52.15"/>
<text text-anchor="middle" x="119.8" y="-30.45" font-family="Times,serif" font-size="14.00">Publisher</text>
</g>
<!-- entity_Ticket -->
<g id="node11" class="node">
<title>entity_Ticket</title>
<polygon fill="lightgrey" stroke="black" points="277.04,-289.93 223.04,-289.93 223.04,-253.93 277.04,-253.93 277.04,-289.93"/>
<text text-anchor="middle" x="250.04" y="-268.23" font-family="Times,serif" font-size="14.00">Ticket</text>
</g>
<!-- entity_Reservation -->
<g id="node12" class="node">
<title>entity_Reservation</title>
<polygon fill="lightgrey" stroke="black" points="237.54,-241.93 156.54,-241.93 156.54,-205.93 237.54,-205.93 237.54,-241.93"/>
<text text-anchor="middle" x="197.04" y="-220.23" font-family="Times,serif" font-size="14.00">Reservation</text>
</g>
<!-- entity_User -->
<g id="node13" class="node">
<title>entity_User</title>
<polygon fill="lightgrey" stroke="black" points="88.28,-320.98 34.28,-320.98 34.28,-284.98 88.28,-284.98 88.28,-320.98"/>
<text text-anchor="middle" x="61.28" y="-299.28" font-family="Times,serif" font-size="14.00">User</text>
</g>
<!-- __0:cluster_reservation -->
<!-- __1:cluster_cinema -->
<!-- __0:cluster_reservation&#45;&gt;__1:cluster_cinema -->
<g id="edge4" class="edge">
<title>__0:cluster_reservation&#45;&gt;__1:cluster_cinema</title>
<path fill="none" stroke="black" d="M297.74,-214.75C299.4,-213.59 301.07,-212.43 302.75,-211.27"/>
<polygon fill="black" stroke="black" points="304.89,-214.04 311.11,-205.46 300.9,-208.29 304.89,-214.04"/>
<text text-anchor="middle" x="357.74" y="-216.81" font-family="Times,serif" font-size="14.00">AntiCorruptionLayer</text>
<text text-anchor="middle" x="306.11" y="-194.26" font-family="Times,serif" font-size="14.00">D</text>
</g>
<!-- __2:cluster_reservation -->
<!-- __3:cluster_movie -->
<!-- __2:cluster_reservation&#45;&gt;__3:cluster_movie -->
<g id="edge5" class="edge">
<title>__2:cluster_reservation&#45;&gt;__3:cluster_movie</title>
<path fill="none" stroke="black" d="M181.9,-190.01C181.85,-189.91 181.81,-189.81 181.77,-189.71"/>
<polygon fill="black" stroke="black" points="184.94,-188.23 177.79,-180.41 178.5,-190.98 184.94,-188.23"/>
</g>
<!-- __4:cluster_reservation -->
<!-- __5:cluster_user -->
<!-- __4:cluster_reservation&#45;&gt;__5:cluster_user -->
<g id="edge6" class="edge">
<title>__4:cluster_reservation&#45;&gt;__5:cluster_user</title>
<path fill="none" stroke="black" d="M135.49,-299.8C134.2,-300.26 132.91,-300.72 131.63,-301.17"/>
<polygon fill="black" stroke="black" points="130.11,-297.99 121.85,-304.63 132.44,-304.59 130.11,-297.99"/>
</g>
</g>
</svg>
